<svg width="1440" height="1024" viewBox="0 0 1440 1024" fill="none" xmlns="http://www.w3.org/2000/svg">
<rect width="1440" height="1024" fill="url(#paint0_radial)"/>
<circle cx="717" cy="406" r="166" fill="url(#paint1_radial)"/>
<path opacity="0.7" d="M486.726 700.07C486.726 703.07 486.126 705.65 484.926 707.81C483.726 709.91 482.166 711.62 480.246 712.94C478.386 714.26 476.256 715.22 473.856 715.82C471.516 716.42 469.176 716.72 466.836 716.72C464.436 716.72 462.366 716.48 460.626 716C458.886 715.52 457.296 715.07 455.856 714.65C454.896 714.35 454.026 714.11 453.246 713.93C452.466 713.69 451.686 713.57 450.906 713.57V703.31H451.806C451.806 705.59 452.376 707.42 453.516 708.8C454.716 710.12 456.096 711.14 457.656 711.86C459.216 712.58 460.776 713.06 462.336 713.3C463.896 713.48 465.036 713.57 465.756 713.57C468.336 713.57 470.556 713.21 472.416 712.49C474.276 711.71 475.806 710.72 477.006 709.52C478.206 708.26 479.076 706.88 479.616 705.38C480.216 703.88 480.516 702.35 480.516 700.79C480.516 698.81 480.096 697.16 479.256 695.84C478.416 694.46 477.306 693.26 475.926 692.24C474.606 691.22 473.076 690.35 471.336 689.63C469.596 688.91 467.826 688.19 466.026 687.47C463.986 686.69 461.976 685.88 459.996 685.04C458.016 684.2 456.246 683.18 454.686 681.98C453.126 680.72 451.866 679.25 450.906 677.57C449.946 675.83 449.466 673.7 449.466 671.18C449.466 668.54 449.976 666.26 450.996 664.34C452.016 662.36 453.366 660.74 455.046 659.48C456.786 658.22 458.736 657.29 460.896 656.69C463.116 656.03 465.366 655.7 467.646 655.7C469.206 655.7 470.676 655.82 472.056 656.06C473.436 656.24 474.756 656.48 476.016 656.78C477.036 657.02 478.026 657.23 478.986 657.41C479.946 657.53 480.876 657.59 481.776 657.59V666.86H480.876C480.756 663.74 479.526 661.64 477.186 660.56C474.846 659.42 471.606 658.85 467.466 658.85C465.066 658.85 463.086 659.27 461.526 660.11C460.026 660.89 458.826 661.88 457.926 663.08C457.026 664.22 456.396 665.48 456.036 666.86C455.736 668.18 455.586 669.35 455.586 670.37C455.586 672.05 455.946 673.49 456.666 674.69C457.446 675.89 458.466 676.94 459.726 677.84C460.986 678.74 462.426 679.55 464.046 680.27C465.726 680.99 467.466 681.68 469.266 682.34C471.306 683.12 473.376 683.96 475.476 684.86C477.576 685.76 479.436 686.87 481.056 688.19C482.736 689.51 484.086 691.13 485.106 693.05C486.186 694.97 486.726 697.31 486.726 700.07ZM494.757 656.6H507.627V657.5H507.177C506.757 657.5 506.367 657.68 506.007 658.04C505.647 658.34 505.347 658.73 505.107 659.21C504.867 659.63 504.657 660.14 504.477 660.74C504.357 661.28 504.297 661.76 504.297 662.18V710.15C504.297 710.63 504.357 711.17 504.477 711.77C504.597 712.31 504.777 712.82 505.017 713.3C505.317 713.78 505.617 714.2 505.917 714.56C506.277 714.92 506.697 715.1 507.177 715.1H507.627V716H494.757V715.1H495.207C495.687 715.1 496.107 714.95 496.467 714.65C496.827 714.29 497.127 713.87 497.367 713.39C497.667 712.85 497.877 712.31 497.997 711.77C498.117 711.17 498.177 710.63 498.177 710.15V662.18C498.177 661.76 498.117 661.28 497.997 660.74C497.877 660.2 497.667 659.69 497.367 659.21C497.127 658.73 496.827 658.34 496.467 658.04C496.107 657.68 495.687 657.5 495.207 657.5H494.757V656.6ZM525.731 715.1H526.181V716H516.191V715.1H516.641C517.061 715.1 517.451 714.92 517.811 714.56C518.231 714.2 518.561 713.78 518.801 713.3C519.041 712.82 519.221 712.31 519.341 711.77C519.521 711.17 519.611 710.63 519.611 710.15V662.18C519.611 661.76 519.551 661.28 519.431 660.74C519.371 660.2 519.221 659.69 518.981 659.21C518.741 658.73 518.411 658.34 517.991 658.04C517.571 657.68 517.061 657.5 516.461 657.5H516.011V656.6H525.101L557.771 708.08V662.18C557.771 661.76 557.681 661.28 557.501 660.74C557.381 660.2 557.171 659.69 556.871 659.21C556.631 658.73 556.331 658.34 555.971 658.04C555.611 657.68 555.191 657.5 554.711 657.5H554.261V656.6H564.341V657.5H563.891C563.411 657.5 562.991 657.68 562.631 658.04C562.271 658.34 561.941 658.73 561.641 659.21C561.401 659.69 561.221 660.2 561.101 660.74C560.981 661.28 560.921 661.76 560.921 662.18V716H555.341L522.761 664.34V710.15C522.761 710.63 522.821 711.17 522.941 711.77C523.061 712.31 523.241 712.82 523.481 713.3C523.781 713.78 524.111 714.2 524.471 714.56C524.831 714.92 525.251 715.1 525.731 715.1ZM585.215 715.1H585.665V716H572.795V715.1H573.245C573.725 715.1 574.145 714.92 574.505 714.56C574.865 714.2 575.165 713.78 575.405 713.3C575.705 712.82 575.915 712.31 576.035 711.77C576.155 711.17 576.215 710.63 576.215 710.15V662.18C576.215 661.76 576.155 661.28 576.035 660.74C575.915 660.2 575.705 659.69 575.405 659.21C575.165 658.73 574.865 658.34 574.505 658.04C574.145 657.68 573.755 657.5 573.335 657.5H572.885V656.6H585.755V657.5H585.305C584.825 657.5 584.405 657.68 584.045 658.04C583.685 658.34 583.355 658.73 583.055 659.21C582.815 659.69 582.605 660.2 582.425 660.74C582.305 661.28 582.245 661.76 582.245 662.18V683.06L605.105 660.38C605.465 659.96 605.645 659.48 605.645 658.94C605.645 657.98 605.285 657.5 604.565 657.5H604.115V656.6H615.095V657.5H614.645C613.805 657.5 612.935 657.8 612.035 658.4C611.135 659 610.235 659.75 609.335 660.65L590.435 679.46L610.325 709.61C610.385 709.73 610.655 710.09 611.135 710.69C611.615 711.29 612.185 711.92 612.845 712.58C613.565 713.24 614.345 713.84 615.185 714.38C616.085 714.86 616.985 715.1 617.885 715.1V716H615.725C613.925 716 612.395 715.91 611.135 715.73C609.935 715.49 608.885 715.13 607.985 714.65C607.085 714.17 606.275 713.57 605.555 712.85C604.895 712.13 604.205 711.23 603.485 710.15L586.025 683.78L582.245 687.65V710.15C582.245 710.63 582.305 711.14 582.425 711.68C582.605 712.22 582.815 712.76 583.055 713.3C583.295 713.78 583.595 714.2 583.955 714.56C584.315 714.92 584.735 715.1 585.215 715.1ZM624.132 656.6H637.002V657.5H636.552C636.132 657.5 635.742 657.68 635.382 658.04C635.022 658.34 634.722 658.73 634.482 659.21C634.242 659.63 634.032 660.14 633.852 660.74C633.732 661.28 633.672 661.76 633.672 662.18V710.15C633.672 710.63 633.732 711.17 633.852 711.77C633.972 712.31 634.152 712.82 634.392 713.3C634.692 713.78 634.992 714.2 635.292 714.56C635.652 714.92 636.072 715.1 636.552 715.1H637.002V716H624.132V715.1H624.582C625.062 715.1 625.482 714.95 625.842 714.65C626.202 714.29 626.502 713.87 626.742 713.39C627.042 712.85 627.252 712.31 627.372 711.77C627.492 711.17 627.552 710.63 627.552 710.15V662.18C627.552 661.76 627.492 661.28 627.372 660.74C627.252 660.2 627.042 659.69 626.742 659.21C626.502 658.73 626.202 658.34 625.842 658.04C625.482 657.68 625.062 657.5 624.582 657.5H624.132V656.6ZM655.106 715.1H655.556V716H645.566V715.1H646.016C646.436 715.1 646.826 714.92 647.186 714.56C647.606 714.2 647.936 713.78 648.176 713.3C648.416 712.82 648.596 712.31 648.716 711.77C648.896 711.17 648.986 710.63 648.986 710.15V662.18C648.986 661.76 648.926 661.28 648.806 660.74C648.746 660.2 648.596 659.69 648.356 659.21C648.116 658.73 647.786 658.34 647.366 658.04C646.946 657.68 646.436 657.5 645.836 657.5H645.386V656.6H654.476L687.146 708.08V662.18C687.146 661.76 687.056 661.28 686.876 660.74C686.756 660.2 686.546 659.69 686.246 659.21C686.006 658.73 685.706 658.34 685.346 658.04C684.986 657.68 684.566 657.5 684.086 657.5H683.636V656.6H693.716V657.5H693.266C692.786 657.5 692.366 657.68 692.006 658.04C691.646 658.34 691.316 658.73 691.016 659.21C690.776 659.69 690.596 660.2 690.476 660.74C690.356 661.28 690.296 661.76 690.296 662.18V716H684.716L652.136 664.34V710.15C652.136 710.63 652.196 711.17 652.316 711.77C652.436 712.31 652.616 712.82 652.856 713.3C653.156 713.78 653.486 714.2 653.846 714.56C654.206 714.92 654.626 715.1 655.106 715.1ZM740.87 684.68H753.74V685.58H753.29C752.81 685.58 752.39 685.76 752.03 686.12C751.67 686.42 751.37 686.81 751.13 687.29C750.89 687.77 750.68 688.28 750.5 688.82C750.38 689.36 750.32 689.84 750.32 690.26V714.38C749.24 714.8 748.01 715.16 746.63 715.46C745.25 715.76 743.81 716 742.31 716.18C740.81 716.42 739.28 716.6 737.72 716.72C736.16 716.84 734.72 716.9 733.4 716.9C728 716.9 723.29 716 719.27 714.2C715.25 712.4 711.92 710.06 709.28 707.18C706.64 704.24 704.66 700.94 703.34 697.28C702.08 693.62 701.45 689.93 701.45 686.21C701.45 682.49 702.08 678.8 703.34 675.14C704.66 671.48 706.64 668.21 709.28 665.33C711.98 662.45 715.34 660.14 719.36 658.4C723.44 656.6 728.27 655.7 733.85 655.7C735.95 655.7 737.9 655.88 739.7 656.24C741.5 656.6 743.09 656.93 744.47 657.23C745.25 657.41 745.91 657.59 746.45 657.77C747.05 657.89 747.56 657.95 747.98 657.95H748.79V667.49H747.89C747.53 665.63 746.81 664.13 745.73 662.99C744.71 661.85 743.51 660.98 742.13 660.38C740.75 659.78 739.28 659.39 737.72 659.21C736.22 658.97 734.81 658.85 733.49 658.85C728.99 658.85 725.09 659.66 721.79 661.28C718.49 662.84 715.79 664.88 713.69 667.4C711.59 669.92 710.03 672.77 709.01 675.95C707.99 679.07 707.48 682.19 707.48 685.31C707.48 688.79 708.14 692.24 709.46 695.66C710.78 699.02 712.64 702.05 715.04 704.75C717.44 707.39 720.32 709.55 723.68 711.23C727.1 712.85 730.88 713.66 735.02 713.66C736.16 713.66 737.57 713.54 739.25 713.3C740.93 713 742.61 712.37 744.29 711.41V690.26C744.29 689.84 744.23 689.36 744.11 688.82C743.99 688.28 743.78 687.77 743.48 687.29C743.24 686.81 742.94 686.42 742.58 686.12C742.22 685.76 741.8 685.58 741.32 685.58H740.87V684.68ZM784.609 715.1H785.059C785.479 715.1 785.869 714.92 786.229 714.56C786.589 714.2 786.889 713.78 787.129 713.3C787.429 712.82 787.639 712.31 787.759 711.77C787.879 711.17 787.939 710.63 787.939 710.15V662.18C787.939 661.76 787.879 661.28 787.759 660.74C787.639 660.2 787.459 659.69 787.219 659.21C786.979 658.73 786.679 658.34 786.319 658.04C785.959 657.68 785.539 657.5 785.059 657.5H784.609V656.6H801.979C806.719 656.6 810.979 657.44 814.759 659.12C818.539 660.74 821.719 662.96 824.299 665.78C826.939 668.54 828.949 671.72 830.329 675.32C831.709 678.92 832.399 682.67 832.399 686.57C832.399 690.23 831.739 693.83 830.419 697.37C829.099 700.85 827.119 703.97 824.479 706.73C821.839 709.49 818.539 711.74 814.579 713.48C810.619 715.16 806.029 716 800.809 716H784.609V715.1ZM826.279 687.92C826.279 684.08 825.589 680.45 824.209 677.03C822.829 673.61 820.879 670.64 818.359 668.12C815.899 665.54 812.959 663.5 809.539 662C806.179 660.5 802.519 659.75 798.559 659.75H793.969V712.85H798.739C801.979 712.85 805.219 712.37 808.459 711.41C811.759 710.39 814.729 708.86 817.369 706.82C820.009 704.72 822.139 702.11 823.759 698.99C825.439 695.87 826.279 692.18 826.279 687.92ZM874.538 715.1H874.988C876.428 715.1 877.148 714.44 877.148 713.12C877.148 712.64 877.058 712.13 876.878 711.59L868.778 689.72H853.028L845.198 711.23C845.018 711.71 844.928 712.16 844.928 712.58C844.928 713.36 845.138 713.99 845.558 714.47C845.978 714.89 846.428 715.1 846.908 715.1H847.358V716H837.368V715.1H837.818C838.598 715.1 839.348 714.65 840.068 713.75C840.848 712.79 841.478 711.68 841.958 710.42L862.568 655.52L882.728 709.88C883.148 711.08 883.718 712.25 884.438 713.39C885.218 714.53 886.208 715.1 887.408 715.1H887.858V716H874.538V715.1ZM853.928 686.66H867.788L860.858 667.85L853.928 686.66ZM905.484 715.1H905.934V716H893.244V715.1H893.694C894.114 715.1 894.504 714.92 894.864 714.56C895.224 714.2 895.524 713.78 895.764 713.3C896.064 712.82 896.274 712.31 896.394 711.77C896.514 711.17 896.574 710.63 896.574 710.15V662.18C896.574 661.76 896.514 661.28 896.394 660.74C896.274 660.2 896.064 659.69 895.764 659.21C895.524 658.73 895.224 658.34 894.864 658.04C894.504 657.68 894.114 657.5 893.694 657.5H893.244V656.6H908.904C914.904 656.6 919.524 657.77 922.764 660.11C926.064 662.45 927.714 665.9 927.714 670.46C927.714 672.74 927.324 674.75 926.544 676.49C925.824 678.17 924.834 679.64 923.574 680.9C922.314 682.1 920.814 683.09 919.074 683.87C917.394 684.59 915.594 685.13 913.674 685.49L920.154 695.39C921.714 697.79 923.304 700.16 924.924 702.5C926.544 704.78 928.134 707.15 929.694 709.61C930.114 710.21 930.564 710.84 931.044 711.5C931.584 712.16 932.124 712.76 932.664 713.3C933.264 713.84 933.864 714.29 934.464 714.65C935.124 714.95 935.784 715.1 936.444 715.1V716H932.574C930.174 716 928.194 715.43 926.634 714.29C925.134 713.09 923.874 711.71 922.854 710.15C920.154 706.19 917.454 702.17 914.754 698.09C912.114 694.01 909.474 689.99 906.834 686.03C906.174 685.97 905.454 685.91 904.674 685.85C903.954 685.73 903.264 685.61 902.604 685.49V710.15C902.604 710.63 902.664 711.17 902.784 711.77C902.904 712.31 903.084 712.82 903.324 713.3C903.624 713.78 903.924 714.2 904.224 714.56C904.584 714.92 905.004 715.1 905.484 715.1ZM902.604 659.66V682.52H903.054C903.534 682.58 904.284 682.64 905.304 682.7C906.384 682.7 907.704 682.7 909.264 682.7C910.524 682.7 911.844 682.52 913.224 682.16C914.664 681.74 915.984 681.08 917.184 680.18C918.444 679.22 919.464 677.99 920.244 676.49C921.084 674.99 921.504 673.1 921.504 670.82C921.504 668.54 921.054 666.68 920.154 665.24C919.314 663.8 918.114 662.66 916.554 661.82C915.054 660.98 913.224 660.41 911.064 660.11C908.904 659.81 906.534 659.66 903.954 659.66H902.604ZM954.268 715.1H954.718V716H941.848V715.1H942.298C942.778 715.1 943.198 714.92 943.558 714.56C943.918 714.2 944.218 713.78 944.458 713.3C944.758 712.82 944.968 712.31 945.088 711.77C945.208 711.17 945.268 710.63 945.268 710.15V662.18C945.268 661.76 945.208 661.28 945.088 660.74C944.968 660.2 944.758 659.69 944.458 659.21C944.218 658.73 943.918 658.34 943.558 658.04C943.198 657.68 942.808 657.5 942.388 657.5H941.938V656.6H954.808V657.5H954.358C953.878 657.5 953.458 657.68 953.098 658.04C952.738 658.34 952.408 658.73 952.108 659.21C951.868 659.69 951.658 660.2 951.478 660.74C951.358 661.28 951.298 661.76 951.298 662.18V683.06L974.158 660.38C974.518 659.96 974.698 659.48 974.698 658.94C974.698 657.98 974.338 657.5 973.618 657.5H973.168V656.6H984.148V657.5H983.698C982.858 657.5 981.988 657.8 981.088 658.4C980.188 659 979.288 659.75 978.388 660.65L959.488 679.46L979.378 709.61C979.438 709.73 979.708 710.09 980.188 710.69C980.668 711.29 981.238 711.92 981.898 712.58C982.618 713.24 983.398 713.84 984.238 714.38C985.138 714.86 986.038 715.1 986.938 715.1V716H984.778C982.978 716 981.448 715.91 980.188 715.73C978.988 715.49 977.938 715.13 977.038 714.65C976.138 714.17 975.328 713.57 974.608 712.85C973.948 712.13 973.258 711.23 972.538 710.15L955.078 683.78L951.298 687.65V710.15C951.298 710.63 951.358 711.14 951.478 711.68C951.658 712.22 951.868 712.76 952.108 713.3C952.348 713.78 952.648 714.2 953.008 714.56C953.368 714.92 953.788 715.1 954.268 715.1Z" fill="#272727"/>
<defs>
<radialGradient id="paint0_radial" cx="0" cy="0" r="1" gradientUnits="userSpaceOnUse" gradientTransform="translate(720 512) rotate(90) scale(512 720)">
<stop offset="0.90625"/>
<stop offset="1" stop-opacity="0"/>
</radialGradient>
<radialGradient id="paint1_radial" cx="0" cy="0" r="1" gradientUnits="userSpaceOnUse" gradientTransform="translate(717 406) rotate(90) scale(166)">
<stop offset="0.677083"/>
<stop offset="1" stop-color="#212121"/>
</radialGradient>
</defs>
</svg>
